<svg width="112" height="26" viewBox="0 0 112 26" fill="none" xmlns="http://www.w3.org/2000/svg">
<g clip-path="url(#clip0_509_23098)">
<path d="M40.4316 9.24802V10.7215H40.4766C41.0069 9.9326 41.8871 9.00353 43.8381 9.00353C45.3559 9.00353 46.5203 9.77612 47.0193 10.9432H47.0643C47.4906 10.3531 47.9792 9.90652 48.5267 9.59031C49.1748 9.21542 49.8956 9.00027 50.8035 9.00027C52.8585 9.00027 54.6778 10.3368 54.6778 13.7076V20.1002H51.5451V14.1542C51.5451 12.446 50.9282 11.4582 49.6461 11.4582C48.7069 11.4582 48.0243 12.0515 47.7644 12.7818C47.6743 13.0328 47.6327 13.3751 47.6327 13.6619V20.1035H44.5V13.9129C44.5 12.4623 43.9074 11.455 42.6425 11.455C41.6306 11.455 40.9965 12.2048 40.7366 12.847C40.6257 13.1208 40.591 13.437 40.591 13.7336V20.1002H37.4548V9.24802H40.4316ZM70.8473 9.24802V11.2952H70.9339C71.5092 9.73049 72.8745 9.00353 74.0735 9.00353C74.375 9.00353 74.5414 9.02635 74.784 9.07198V11.9146C74.4963 11.8755 74.2295 11.8364 73.8552 11.8364C72.4968 11.8364 71.5507 12.5796 71.3116 13.7434C71.2597 13.9847 71.2423 14.2455 71.2423 14.5454V20.1035H68.0265V9.24802H70.8473ZM79.1503 5.65234V9.06872H81.8672V11.8331H79.1503V15.9113C79.1503 17.2315 79.5073 17.8705 80.5677 17.8705C81.0667 17.8705 81.434 17.8118 81.7528 17.7368L81.7944 20.0285C81.3682 20.1785 80.4602 20.3415 79.5385 20.3415C78.4538 20.3415 77.5493 19.9861 76.9983 19.4352C76.3676 18.8061 76.0765 17.7759 76.0765 16.309V5.65234H79.1503ZM35.2716 20.1002H32.1528V5.65234H35.2716V20.1002ZM26.9547 16.2242C26.9547 16.4231 26.9374 16.6317 26.8785 16.811C26.6359 17.564 25.8077 18.1997 24.775 18.1997C23.9121 18.1997 23.226 17.7401 23.226 16.7654C23.226 15.2756 24.9725 14.8616 26.9582 14.8714V16.2242H26.9547ZM30.0701 13.6261C30.0701 11.1648 28.9542 9.00353 25.1804 9.00353C23.2433 9.00353 21.7047 9.51533 20.866 9.97172L21.4794 11.9472C22.2453 11.4908 23.4685 11.1159 24.626 11.1159C26.5423 11.1127 26.8542 12.1363 26.8542 12.7915V12.948C22.6784 12.9415 20.0413 14.3009 20.0413 17.0718C20.0413 18.7637 21.3824 20.348 23.7181 20.348C25.1562 20.348 26.3552 19.8101 27.076 18.9462H27.1453C27.1453 18.9462 27.6235 20.8207 30.2503 20.1035C30.1117 19.3211 30.0666 18.4898 30.0666 17.4891V13.6261H30.0701ZM4.37428 5.65234C4.69656 7.18124 5.61142 11.6212 5.61142 11.6212C5.99608 13.4468 6.34955 15.3603 6.61638 16.8729H6.6649C6.9248 15.2658 7.33372 13.7434 7.77036 11.8592L9.31245 5.65234H12.7259L14.1675 12.0189C14.5452 13.7891 14.8467 15.155 15.0858 16.8012H15.1308C15.3907 15.1387 15.7303 13.7173 16.1011 11.8983L17.4873 5.65234H20.7621L16.7041 20.1002C14.1189 20.6316 13.1278 19.6536 12.7744 18.1019C12.4209 16.5469 11.7278 13.5902 11.7278 13.5902C11.3709 11.97 11.0937 10.8291 10.8996 9.16652H10.8511C10.5739 10.8128 10.2828 11.9668 9.85305 13.587L8.15155 20.1035C5.51093 20.599 4.59606 19.8655 4.09012 17.8737C3.65348 16.1688 0.929688 5.6556 0.929688 5.6556H4.37428V5.65234ZM62.8284 16.2242C62.8284 16.4231 62.811 16.6317 62.7521 16.811C62.5096 17.564 61.6813 18.1997 60.6486 18.1997C59.7858 18.1997 59.0996 17.7401 59.0996 16.7654C59.0996 15.2756 60.8462 14.8616 62.8318 14.8714V16.2242H62.8284ZM65.9438 13.6261C65.9438 11.1648 64.8279 9.00353 61.0541 9.00353C59.1169 9.00353 57.5783 9.51533 56.7397 9.97172L57.3531 11.9472C58.1189 11.4908 59.3422 11.1159 60.4996 11.1159C62.4125 11.1127 62.7279 12.1363 62.7279 12.7915V12.948C58.5556 12.9415 55.9184 14.3009 55.9184 17.0718C55.9184 18.7637 57.263 20.348 59.5952 20.348C61.0298 20.348 62.2323 19.8101 62.9497 18.9462H63.0224C63.0224 18.9462 63.5007 20.8207 66.1274 20.1035C65.9888 19.3211 65.9438 18.4898 65.9438 17.4891V13.6261Z" fill="#041E42"/>
<path d="M94.5099 15.1241C94.8174 15.6517 94.7966 16.2406 94.4685 16.5096L88.7966 20.4276C88.2059 20.7646 87.3216 20.3561 86.8208 19.5017C86.3164 18.6439 86.4063 17.6874 86.9969 17.3504L93.2768 14.4705C93.6705 14.3208 94.2025 14.5965 94.5099 15.1241ZM101.975 15.1241C102.285 14.5965 102.814 14.3242 103.208 14.4671L109.491 17.3469C110.082 17.6839 110.168 18.6405 109.667 19.4983C109.163 20.3527 108.275 20.7578 107.688 20.4242L102.016 16.5062C101.691 16.2406 101.667 15.6483 101.975 15.1241ZM98.2405 17.2482C98.8588 17.2482 99.3666 17.5614 99.4357 17.9733L100.047 24.7745C100.047 25.4485 99.2492 26 98.244 26C97.2422 26 96.4408 25.4485 96.4408 24.7745L97.0488 17.9733C97.1179 17.5614 97.6257 17.2482 98.2405 17.2482ZM102.016 9.49385L107.688 5.5724C108.275 5.2354 109.163 5.64048 109.667 6.4983C110.168 7.35611 110.082 8.31265 109.491 8.64965L103.208 11.5329C102.814 11.6758 102.282 11.4035 101.975 10.8759C101.667 10.3483 101.691 9.75936 102.016 9.49385ZM93.2768 11.5329L86.9969 8.64965C86.4097 8.31265 86.3199 7.35611 86.8208 6.4983C87.3216 5.64048 88.2094 5.2354 88.7966 5.5724L94.4685 9.49385C94.7966 9.75596 94.8174 10.3483 94.5099 10.8759C94.2025 11.4035 93.6705 11.6758 93.2768 11.5329ZM97.0488 8.02671L96.4408 1.22545C96.4408 0.551453 97.2388 0 98.244 0C99.2492 0 100.047 0.551453 100.047 1.22545L99.4357 8.02671C99.3666 8.43519 98.8588 8.75177 98.2405 8.75177C97.6257 8.75177 97.1179 8.43519 97.0488 8.02671ZM111.201 20.4004V20.2302H111.356C111.408 20.2302 111.443 20.2642 111.443 20.3153C111.443 20.3629 111.408 20.4004 111.356 20.4004H111.201ZM111.073 20.7101C111.073 20.7272 111.087 20.7442 111.108 20.7442H111.173C111.19 20.7442 111.208 20.7272 111.208 20.7101V20.5161H111.315L111.401 20.7203C111.408 20.734 111.418 20.7442 111.432 20.7442H111.512C111.536 20.7442 111.553 20.7203 111.543 20.6965C111.512 20.6352 111.481 20.5706 111.45 20.5059C111.501 20.4889 111.581 20.4378 111.581 20.3153C111.581 20.1859 111.474 20.111 111.367 20.111H111.108C111.09 20.111 111.073 20.128 111.073 20.1451V20.7101ZM110.793 20.4276C110.793 20.1519 111.021 19.9272 111.301 19.9272C111.581 19.9272 111.809 20.1485 111.809 20.4276C111.809 20.7033 111.584 20.928 111.301 20.928C111.018 20.928 110.793 20.7033 110.793 20.4276ZM110.672 20.4276C110.672 20.768 110.952 21.0471 111.301 21.0471C111.646 21.0471 111.93 20.768 111.93 20.4276C111.93 20.0872 111.646 19.8081 111.301 19.8081C110.952 19.8081 110.672 20.0872 110.672 20.4276Z" fill="#FFC124"/>
</g>
<defs>
<clipPath id="clip0_509_23098">
<rect width="111" height="26" fill="white" transform="translate(0.929688)"/>
</clipPath>
</defs>
</svg>
