<svg width="123" height="26" viewBox="0 0 123 26" fill="none" xmlns="http://www.w3.org/2000/svg">
<g clip-path="url(#clip0_509_23092)">
<path d="M43.9918 14.9753L43.2647 17.0311H43.2041C43.0829 16.5675 42.8607 15.8621 42.4971 15.0156L38.5988 5.24042H34.7812V20.8203H37.3061V11.2063C37.3061 10.6017 37.3061 9.91639 37.2859 9.06987C37.2657 8.64662 37.2253 8.32414 37.2051 8.08228H37.2657C37.3869 8.68693 37.5283 9.13034 37.6293 9.41251L42.3154 20.78H44.0928L48.7385 9.31173C48.8395 9.04972 48.9405 8.52569 49.0415 8.08228H49.1021C49.0415 9.23111 49.0011 10.259 48.9809 10.8838V20.7598H51.6673V5.20011H47.9912L43.9918 14.9753V14.9753ZM54.2124 9.5939H56.8382V20.7598H54.2124V9.5939ZM55.5455 4.87763C55.1011 4.87763 54.7375 5.03887 54.4346 5.32104C54.1316 5.60321 53.97 5.966 53.97 6.40941C53.97 6.83266 54.1316 7.19546 54.4346 7.47763C54.7375 7.7598 55.1011 7.90088 55.5455 7.90088C55.9899 7.90088 56.3736 7.73964 56.6564 7.47763C56.9594 7.19546 57.121 6.83266 57.121 6.40941C57.121 5.98615 56.9594 5.62336 56.6564 5.32104C56.3938 5.03887 56.0101 4.87763 55.5455 4.87763V4.87763ZM66.1498 9.49313C65.665 9.39235 65.1601 9.33189 64.6753 9.33189C63.4836 9.33189 62.3928 9.59391 61.4839 10.1179C60.575 10.642 59.8478 11.3675 59.3832 12.2745C58.8985 13.2017 58.6561 14.2699 58.6561 15.4993C58.6561 16.5675 58.8985 17.5148 59.363 18.3815C59.8276 19.228 60.474 19.9133 61.3425 20.3769C62.1707 20.8404 63.1402 21.0823 64.2309 21.0823C65.4832 21.0823 66.5538 20.8203 67.4021 20.3365L67.4223 20.3164V17.8978L67.3213 17.9784C66.9375 18.2606 66.4932 18.5024 66.0488 18.6435C65.5842 18.8048 65.1601 18.8854 64.7965 18.8854C63.7461 18.8854 62.918 18.5831 62.3322 17.9179C61.7263 17.273 61.4233 16.3862 61.4233 15.2776C61.4233 14.1288 61.7263 13.2218 62.3524 12.5567C62.9786 11.8916 63.8067 11.5489 64.8167 11.5489C65.665 11.5489 66.5336 11.8311 67.3213 12.3955L67.4223 12.4761V9.91639L67.4021 9.89623C67.0587 9.75515 66.675 9.5939 66.1498 9.49313V9.49313ZM74.815 9.41251C74.1687 9.41251 73.5627 9.61406 73.0375 10.0373C72.5932 10.4001 72.2902 10.9241 72.0276 11.5489H72.0074V9.5939H69.3816V20.7598H72.0074V15.0559C72.0074 14.0885 72.2094 13.2823 72.6538 12.6978C73.0981 12.0931 73.6637 11.7908 74.3504 11.7908C74.5928 11.7908 74.8352 11.8513 75.1382 11.8916C75.421 11.9722 75.623 12.0528 75.7644 12.1536L75.8653 12.2342V9.61406L75.8048 9.5939C75.623 9.47297 75.2594 9.41251 74.815 9.41251V9.41251ZM81.9654 9.35205C80.1273 9.35205 78.6528 9.89623 77.6226 10.9644C76.5723 12.0327 76.0673 13.504 76.0673 15.3582C76.0673 17.0916 76.5925 18.5024 77.6024 19.5303C78.6124 20.5381 79.9859 21.0621 81.7028 21.0621C83.5004 21.0621 84.9346 20.5179 85.9647 19.4296C87.015 18.3412 87.52 16.89 87.52 15.0962C87.52 13.3226 87.0352 11.9117 86.0455 10.8838C85.0961 9.85592 83.7024 9.35205 81.9654 9.35205V9.35205ZM84.066 17.9381C83.5812 18.5629 82.8137 18.8652 81.8644 18.8652C80.915 18.8652 80.1475 18.5629 79.6021 17.8978C79.0567 17.273 78.7942 16.366 78.7942 15.2172C78.7942 14.028 79.0769 13.121 79.6021 12.4761C80.1475 11.8311 80.8948 11.5086 81.8442 11.5086C82.7733 11.5086 83.5004 11.811 84.0256 12.4358C84.5508 13.0606 84.8336 13.9675 84.8336 15.1567C84.7932 16.366 84.571 17.3133 84.066 17.9381V17.9381ZM93.3776 14.2296C92.5495 13.8869 92.0243 13.6249 91.7819 13.4032C91.5799 13.2017 91.4789 12.9195 91.4789 12.5567C91.4789 12.2544 91.6001 11.952 91.9031 11.7505C92.2061 11.5489 92.5495 11.4482 93.0544 11.4482C93.4988 11.4482 93.9634 11.5288 94.4077 11.6497C94.8521 11.7706 95.2561 11.952 95.5793 12.1939L95.6802 12.2745V9.81561L95.6196 9.79546C95.3167 9.67453 94.9127 9.5536 94.4279 9.45282C93.9432 9.3722 93.4988 9.33189 93.1352 9.33189C91.8829 9.33189 90.8528 9.63422 90.0448 10.2993C89.2369 10.9241 88.8531 11.7706 88.8531 12.7582C88.8531 13.2823 88.9339 13.7458 89.1157 14.1288C89.2975 14.5117 89.5601 14.8745 89.9236 15.1769C90.2872 15.459 90.8124 15.7815 91.5395 16.0838C92.1455 16.3458 92.61 16.5474 92.8928 16.7086C93.1756 16.8699 93.3574 17.0513 93.4988 17.1924C93.5998 17.3536 93.6604 17.5551 93.6604 17.8172C93.6604 18.5629 93.0948 18.9257 91.9435 18.9257C91.4991 18.9257 91.0346 18.8451 90.4892 18.6637C89.9438 18.4823 89.4389 18.2203 89.0147 17.9179L88.9137 17.8373V20.397L88.9743 20.4172C89.3581 20.5986 89.8226 20.7195 90.3882 20.8606C90.9538 20.9613 91.4587 21.042 91.9031 21.042C93.2564 21.042 94.3673 20.7396 95.1551 20.0745C95.963 19.4296 96.3872 18.6032 96.3872 17.535C96.3872 16.7893 96.1852 16.1241 95.7408 15.6203C95.1551 15.1365 94.4279 14.6327 93.3776 14.2296V14.2296ZM103.315 9.35205C101.477 9.35205 100.003 9.89623 98.9726 10.9644C97.9425 12.0327 97.4173 13.504 97.4173 15.3582C97.4173 17.0916 97.9425 18.5024 98.9524 19.5303C99.9624 20.5381 101.336 21.0621 103.053 21.0621C104.85 21.0621 106.285 20.5179 107.315 19.4296C108.365 18.3412 108.87 16.89 108.87 15.0962C108.87 13.3226 108.385 11.9117 107.395 10.8838C106.446 9.85592 105.052 9.35205 103.315 9.35205V9.35205ZM105.396 17.9381C104.911 18.5629 104.143 18.8652 103.194 18.8652C102.225 18.8652 101.477 18.5629 100.932 17.8978C100.387 17.273 100.124 16.366 100.124 15.2172C100.124 14.028 100.407 13.121 100.932 12.4761C101.477 11.8311 102.225 11.5086 103.174 11.5086C104.083 11.5086 104.83 11.811 105.355 12.4358C105.881 13.0606 106.163 13.9675 106.163 15.1567C106.163 16.366 105.901 17.3133 105.396 17.9381V17.9381ZM122.908 11.7505V9.5939H120.262V6.28848L120.181 6.30863L117.677 7.05437L117.616 7.07453V9.5939H113.657V8.18305C113.657 7.53809 113.819 7.03422 114.101 6.71173C114.384 6.38925 114.808 6.22801 115.334 6.22801C115.697 6.22801 116.081 6.30863 116.505 6.49003L116.606 6.55049V4.27298L116.545 4.25282C116.182 4.13189 115.697 4.05127 115.071 4.05127C114.283 4.05127 113.596 4.23266 112.97 4.53499C112.344 4.87763 111.88 5.34119 111.536 5.966C111.193 6.57065 111.011 7.25592 111.011 8.04197V9.5939H109.173V11.7303H111.011V20.7598H113.657V11.7505H117.616V17.4947C117.616 19.8528 118.727 21.042 120.949 21.042C121.312 21.042 121.696 20.9815 122.06 20.921C122.443 20.8404 122.726 20.7396 122.888 20.659L122.908 20.6389V18.4823L122.807 18.5629C122.645 18.6637 122.504 18.7443 122.262 18.8048C122.06 18.8652 121.878 18.8854 121.737 18.8854C121.211 18.8854 120.848 18.7644 120.585 18.4621C120.343 18.18 120.222 17.7164 120.222 17.0311V11.7505H122.908V11.7505Z" fill="#737373"/>
<path d="M0.929688 0H13.3115V12.355H0.929688V0Z" fill="#F25022"/>
<path d="M14.6055 0H26.9873V12.355H14.6055V0Z" fill="#7FBA00"/>
<path d="M0.929688 13.645H13.3115V26.0001H0.929688V13.645Z" fill="#00A4EF"/>
<path d="M14.6055 13.645H26.9873V26.0001H14.6055V13.645Z" fill="#FFB900"/>
</g>
<defs>
<clipPath id="clip0_509_23092">
<rect width="122" height="26" fill="white" transform="translate(0.929688)"/>
</clipPath>
</defs>
</svg>
