<svg width="85" height="24" viewBox="0 0 85 24" fill="none" xmlns="http://www.w3.org/2000/svg">
<g clip-path="url(#clip0_509_23080)">
<path d="M9.37019 3.97266V10.7424H3.2019V3.97266H0.273438V20.1327H3.2019V13.5828H9.37019V20.1327H12.2986V3.97266H9.37019Z" fill="#33475B"/>
<path d="M21.6701 14.9089C21.6701 15.5566 21.4148 16.1777 20.9605 16.6356C20.5061 17.0936 19.8899 17.3508 19.2474 17.3508C18.6048 17.3508 17.9886 17.0936 17.5343 16.6356C17.0799 16.1777 16.8247 15.5566 16.8247 14.9089V7.9873H14.0469V14.9089C14.0469 16.2978 14.5943 17.6298 15.5686 18.6119C16.5429 19.5939 17.8644 20.1457 19.2424 20.1457C20.6203 20.1457 21.9418 19.5939 22.9161 18.6119C23.8904 17.6298 24.4378 16.2978 24.4378 14.9089V7.9873H21.6701V14.9089Z" fill="#33475B"/>
<path d="M42.2531 8.70035C42.2531 7.28161 43.1843 6.83183 44.2045 6.83183C45.0266 6.83183 46.1128 7.46238 46.823 8.22743L48.6424 6.06678C47.7341 4.82882 45.8918 3.97266 44.3838 3.97266C41.3707 3.97266 39.1912 5.75151 39.1912 8.70035C39.1912 14.1714 45.8258 12.4359 45.8258 15.4976C45.8258 16.442 44.9162 17.2764 43.8745 17.2764C42.2316 17.2764 41.6993 16.4665 40.9446 15.6104L38.9258 17.7262C40.2171 19.3243 41.8098 20.1356 43.7181 20.1356C46.5805 20.1356 48.8834 18.3351 48.8834 15.5207C48.8834 9.44659 42.2488 11.3339 42.2488 8.70035" fill="#33475B"/>
<path d="M83.2954 17.5512C81.654 17.5512 81.1876 16.8353 81.1876 15.7391V10.887H83.7387V8.42844H81.1876V5.18457L78.3711 6.45869V16.3421C78.3711 18.8701 80.1015 20.1443 82.4747 20.1443C82.8469 20.1511 83.2188 20.1211 83.5852 20.0546L84.2725 17.5049C83.9626 17.5266 83.6067 17.5483 83.2954 17.5483" fill="#33475B"/>
<path d="M32.2455 8.06813C30.8696 8.06813 29.9097 8.47018 28.9813 9.38853V4.06934H26.1992V13.9282C26.1992 17.619 28.8465 20.1469 31.8208 20.1469C35.1209 20.1469 38.0236 17.5741 38.0236 14.109C38.0236 10.6872 35.3519 8.06958 32.2455 8.06958V8.06813ZM32.2283 17.3254C31.604 17.3254 30.9937 17.1388 30.4746 16.7892C29.9555 16.4396 29.5509 15.9426 29.312 15.3613C29.0731 14.7799 29.0106 14.1402 29.1324 13.523C29.2542 12.9058 29.5548 12.3389 29.9963 11.8939C30.4377 11.4489 31.0002 11.1459 31.6125 11.0231C32.2248 10.9004 32.8595 10.9634 33.4363 11.2042C34.0131 11.445 34.5061 11.8528 34.8529 12.376C35.1998 12.8993 35.3849 13.5144 35.3849 14.1437C35.3849 14.9875 35.0524 15.7968 34.4604 16.3935C33.8684 16.9902 33.0655 17.3254 32.2283 17.3254Z" fill="#33475B"/>
<path d="M62.4532 13.9618C62.4532 10.4909 59.5563 7.92383 56.2505 7.92383C53.2761 7.92383 50.6289 10.4518 50.6289 14.1426V24.0072H53.411V18.6808C54.3379 19.5977 55.2992 20.0012 56.6738 20.0012C59.7802 20.0012 62.4518 17.385 62.4518 13.9618H62.4532ZM59.8189 13.9271C59.8189 14.5564 59.6338 15.1715 59.2869 15.6947C58.9401 16.2179 58.4471 16.6258 57.8703 16.8666C57.2935 17.1074 56.6588 17.1704 56.0465 17.0476C55.4342 16.9249 54.8717 16.6218 54.4303 16.1769C53.9888 15.7319 53.6882 15.165 53.5664 14.5478C53.4446 13.9306 53.5071 13.2909 53.746 12.7095C53.9849 12.1281 54.3895 11.6312 54.9086 11.2816C55.4277 10.932 56.038 10.7454 56.6623 10.7454C57.4995 10.7454 58.3024 11.0806 58.8944 11.6773C59.4863 12.274 59.8189 13.0832 59.8189 13.9271Z" fill="#33475B"/>
<path d="M71.4401 7.78787V4.97063C71.8094 4.79667 72.1222 4.52054 72.3419 4.17438C72.5616 3.82823 72.6793 3.42628 72.6812 3.01535V2.95027C72.6812 2.37493 72.4544 1.82315 72.0508 1.41632C71.6472 1.00949 71.0998 0.780939 70.529 0.780939H70.4644C69.8936 0.780939 69.3462 1.00949 68.9425 1.41632C68.5389 1.82315 68.3122 2.37493 68.3122 2.95027V3.01535C68.3141 3.42628 68.4317 3.82823 68.6514 4.17438C68.8712 4.52054 69.1839 4.79667 69.5533 4.97063V7.78787C68.4917 7.95157 67.4918 8.3951 66.6549 9.07356L58.9902 3.05584C59.0444 2.8574 59.0733 2.6528 59.0762 2.44698C59.0771 1.96352 58.9357 1.49067 58.6699 1.08823C58.4041 0.685791 58.0258 0.371847 57.583 0.186108C57.1402 0.000369021 56.6526 -0.0488204 56.182 0.0447614C55.7115 0.138343 55.279 0.370492 54.9393 0.711844C54.5997 1.0532 54.3681 1.48842 54.2738 1.96245C54.1796 2.43649 54.2269 2.92805 54.4099 3.37496C54.5929 3.82186 54.9032 4.20404 55.3017 4.47314C55.7002 4.74224 56.1689 4.88618 56.6485 4.88675C57.068 4.88486 57.4796 4.77217 57.8423 4.55991L65.3909 10.4793C64.7126 11.5118 64.3587 12.7264 64.3754 13.9647C64.392 15.203 64.7784 16.4075 65.4841 17.4211L63.1884 19.7351C63.0028 19.6753 62.8094 19.6436 62.6145 19.6411C62.2207 19.6414 61.8359 19.7593 61.5086 19.98C61.1813 20.2007 60.9263 20.5142 60.7757 20.8809C60.6252 21.2477 60.5859 21.6511 60.6628 22.0404C60.7396 22.4296 60.9293 22.7872 61.2077 23.0678C61.4862 23.3485 61.8409 23.5396 62.2271 23.6171C62.6132 23.6946 63.0136 23.655 63.3774 23.5033C63.7412 23.3515 64.0523 23.0944 64.2712 22.7646C64.4902 22.4347 64.6072 22.0468 64.6075 21.6499C64.605 21.4535 64.5736 21.2585 64.5142 21.0714L66.7855 18.782C67.5261 19.3565 68.3874 19.7525 69.3033 19.9397C70.2192 20.1268 71.1654 20.1003 72.0696 19.8619C72.9737 19.6236 73.8117 19.1799 74.5194 18.5647C75.2272 17.9495 75.7858 17.1793 76.1526 16.3129C76.5194 15.4465 76.6846 14.507 76.6355 13.5664C76.5865 12.6257 76.3245 11.7088 75.8697 10.886C75.4148 10.0631 74.7791 9.35614 74.0113 8.81913C73.2435 8.28212 72.364 7.92936 71.4401 7.78787V7.78787ZM70.4988 17.0523C69.8775 17.0518 69.2704 16.8656 68.754 16.5173C68.2377 16.169 67.8354 15.6742 67.598 15.0955C67.3605 14.5168 67.2986 13.8801 67.4201 13.266C67.5415 12.6518 67.8409 12.0878 68.2803 11.6451C68.7197 11.2023 69.2795 10.9009 69.8889 10.7787C70.4982 10.6566 71.1298 10.7193 71.7039 10.9589C72.2779 11.1984 72.7686 11.6042 73.1139 12.1248C73.4592 12.6454 73.6437 13.2574 73.6439 13.8837C73.6439 14.7237 73.3129 15.5293 72.7236 16.1232C72.1343 16.7172 71.3351 17.0509 70.5017 17.0509" fill="#FF7A59"/>
</g>
<defs>
<clipPath id="clip0_509_23080">
<rect width="84" height="24" fill="white" transform="translate(0.273438)"/>
</clipPath>
</defs>
</svg>
